<svg xmlns="http://www.w3.org/2000/svg" xmlns:xlink="http://www.w3.org/1999/xlink" width="224.88" viewBox="0 0 224.88 150" height="150" version="1.0"><defs><g id="c"><path d="M 27.53125 0 C 26.96875 -1.5 26.429688 -2.976562 25.921875 -4.4375 C 25.421875 -5.894531 24.90625 -7.375 24.375 -8.875 L 8.625 -8.875 L 5.46875 0 L 0.40625 0 C 1.738281 -3.675781 2.988281 -7.078125 4.15625 -10.203125 C 5.332031 -13.328125 6.476562 -16.296875 7.59375 -19.109375 C 8.71875 -21.921875 9.832031 -24.601562 10.9375 -27.15625 C 12.039062 -29.71875 13.191406 -32.253906 14.390625 -34.765625 L 18.859375 -34.765625 C 20.066406 -32.253906 21.21875 -29.71875 22.3125 -27.15625 C 23.414062 -24.601562 24.523438 -21.921875 25.640625 -19.109375 C 26.765625 -16.296875 27.910156 -13.328125 29.078125 -10.203125 C 30.253906 -7.078125 31.515625 -3.675781 32.859375 0 Z M 22.96875 -12.890625 C 21.894531 -15.796875 20.832031 -18.609375 19.78125 -21.328125 C 18.726562 -24.054688 17.632812 -26.675781 16.5 -29.1875 C 15.332031 -26.675781 14.222656 -24.054688 13.171875 -21.328125 C 12.117188 -18.609375 11.070312 -15.796875 10.03125 -12.890625 Z M 22.96875 -12.890625"/></g><g id="d"><path d="M 13.546875 -35.109375 C 18.421875 -35.109375 22.171875 -34.179688 24.796875 -32.328125 C 27.421875 -30.472656 28.734375 -27.707031 28.734375 -24.03125 C 28.734375 -22.019531 28.375 -20.300781 27.65625 -18.875 C 26.9375 -17.457031 25.898438 -16.304688 24.546875 -15.421875 C 23.191406 -14.535156 21.546875 -13.890625 19.609375 -13.484375 C 17.671875 -13.085938 15.484375 -12.890625 13.046875 -12.890625 L 9.171875 -12.890625 L 9.171875 0 L 4.3125 0 L 4.3125 -34.25 C 5.6875 -34.59375 7.21875 -34.820312 8.90625 -34.9375 C 10.59375 -35.050781 12.140625 -35.109375 13.546875 -35.109375 Z M 13.9375 -30.84375 C 11.863281 -30.84375 10.273438 -30.796875 9.171875 -30.703125 L 9.171875 -17.046875 L 12.84375 -17.046875 C 14.507812 -17.046875 16.007812 -17.15625 17.34375 -17.375 C 18.6875 -17.59375 19.816406 -17.960938 20.734375 -18.484375 C 21.660156 -19.003906 22.375 -19.710938 22.875 -20.609375 C 23.375 -21.515625 23.625 -22.671875 23.625 -24.078125 C 23.625 -25.410156 23.363281 -26.507812 22.84375 -27.375 C 22.320312 -28.25 21.617188 -28.945312 20.734375 -29.46875 C 19.847656 -29.988281 18.820312 -30.347656 17.65625 -30.546875 C 16.488281 -30.742188 15.25 -30.84375 13.9375 -30.84375 Z M 13.9375 -30.84375"/></g><g id="e"><path d="M 4.3125 -34.765625 L 9.171875 -34.765625 L 9.171875 0 L 4.3125 0 Z M 4.3125 -34.765625"/></g><g id="f"><path d="M 8.46875 0.359375 C 6.414062 0.304688 4.957031 -0.132812 4.09375 -0.96875 C 3.226562 -1.800781 2.796875 -3.109375 2.796875 -4.890625 L 2.796875 -27.28125 L 6.140625 -27.859375 L 6.140625 -5.421875 C 6.140625 -4.867188 6.1875 -4.410156 6.28125 -4.046875 C 6.375 -3.691406 6.53125 -3.40625 6.75 -3.1875 C 6.96875 -2.976562 7.253906 -2.816406 7.609375 -2.703125 C 7.972656 -2.597656 8.414062 -2.507812 8.9375 -2.4375 Z M 8.46875 0.359375"/></g><g id="g"><path d="M 0.6875 3.484375 C 0.945312 3.597656 1.285156 3.707031 1.703125 3.8125 C 2.117188 3.925781 2.53125 3.984375 2.9375 3.984375 C 4.257812 3.984375 5.289062 3.6875 6.03125 3.09375 C 6.769531 2.507812 7.441406 1.5625 8.046875 0.25 C 6.535156 -2.625 5.125 -5.671875 3.8125 -8.890625 C 2.507812 -12.109375 1.429688 -15.367188 0.578125 -18.671875 L 4.171875 -18.671875 C 4.429688 -17.597656 4.742188 -16.4375 5.109375 -15.1875 C 5.484375 -13.945312 5.894531 -12.664062 6.34375 -11.34375 C 6.800781 -10.03125 7.296875 -8.710938 7.828125 -7.390625 C 8.359375 -6.078125 8.910156 -4.8125 9.484375 -3.59375 C 10.390625 -6.101562 11.175781 -8.585938 11.84375 -11.046875 C 12.519531 -13.515625 13.15625 -16.054688 13.75 -18.671875 L 17.203125 -18.671875 C 16.335938 -15.148438 15.378906 -11.765625 14.328125 -8.515625 C 13.273438 -5.273438 12.140625 -2.242188 10.921875 0.578125 C 10.441406 1.648438 9.941406 2.578125 9.421875 3.359375 C 8.910156 4.140625 8.34375 4.78125 7.71875 5.28125 C 7.09375 5.78125 6.390625 6.148438 5.609375 6.390625 C 4.835938 6.628906 3.960938 6.75 2.984375 6.75 C 2.710938 6.75 2.429688 6.726562 2.140625 6.6875 C 1.859375 6.65625 1.578125 6.609375 1.296875 6.546875 C 1.023438 6.492188 0.773438 6.429688 0.546875 6.359375 C 0.328125 6.285156 0.171875 6.222656 0.078125 6.171875 Z M 0.6875 3.484375"/></g><g id="h"><path d="M 6 -18.671875 L 13.0625 -18.671875 L 13.0625 -15.875 L 6 -15.875 L 6 -7.25 C 6 -6.320312 6.066406 -5.550781 6.203125 -4.9375 C 6.347656 -4.320312 6.5625 -3.84375 6.84375 -3.5 C 7.132812 -3.15625 7.492188 -2.910156 7.921875 -2.765625 C 8.359375 -2.617188 8.863281 -2.546875 9.4375 -2.546875 C 10.445312 -2.546875 11.253906 -2.660156 11.859375 -2.890625 C 12.472656 -3.117188 12.898438 -3.28125 13.140625 -3.375 L 13.78125 -0.609375 C 13.445312 -0.441406 12.859375 -0.234375 12.015625 0.015625 C 11.179688 0.265625 10.226562 0.390625 9.15625 0.390625 C 7.882812 0.390625 6.835938 0.226562 6.015625 -0.09375 C 5.191406 -0.414062 4.523438 -0.898438 4.015625 -1.546875 C 3.515625 -2.191406 3.160156 -2.984375 2.953125 -3.921875 C 2.753906 -4.867188 2.65625 -5.96875 2.65625 -7.21875 L 2.65625 -23.875 L 6 -24.453125 Z M 6 -18.671875"/></g><g id="i"><path d="M 6.21875 0 L 2.875 0 L 2.875 -18.671875 L 6.21875 -18.671875 Z M 4.53125 -22.046875 C 3.925781 -22.046875 3.414062 -22.242188 3 -22.640625 C 2.582031 -23.035156 2.375 -23.566406 2.375 -24.234375 C 2.375 -24.898438 2.582031 -25.429688 3 -25.828125 C 3.414062 -26.222656 3.925781 -26.421875 4.53125 -26.421875 C 5.125 -26.421875 5.628906 -26.222656 6.046875 -25.828125 C 6.460938 -25.429688 6.671875 -24.898438 6.671875 -24.234375 C 6.671875 -23.566406 6.460938 -23.035156 6.046875 -22.640625 C 5.628906 -22.242188 5.125 -22.046875 4.53125 -22.046875 Z M 4.53125 -22.046875"/></g><g id="j"><path d="M 10.984375 0.4375 C 9.472656 0.4375 8.148438 0.195312 7.015625 -0.28125 C 5.878906 -0.757812 4.921875 -1.429688 4.140625 -2.296875 C 3.367188 -3.160156 2.789062 -4.179688 2.40625 -5.359375 C 2.019531 -6.546875 1.828125 -7.859375 1.828125 -9.296875 C 1.828125 -10.734375 2.035156 -12.050781 2.453125 -13.25 C 2.878906 -14.445312 3.472656 -15.484375 4.234375 -16.359375 C 5.003906 -17.234375 5.941406 -17.914062 7.046875 -18.40625 C 8.160156 -18.894531 9.398438 -19.140625 10.765625 -19.140625 C 11.609375 -19.140625 12.445312 -19.066406 13.28125 -18.921875 C 14.125 -18.773438 14.925781 -18.546875 15.6875 -18.234375 L 14.9375 -15.40625 C 14.4375 -15.644531 13.851562 -15.832031 13.1875 -15.96875 C 12.53125 -16.113281 11.832031 -16.1875 11.09375 -16.1875 C 9.226562 -16.1875 7.796875 -15.597656 6.796875 -14.421875 C 5.804688 -13.253906 5.3125 -11.546875 5.3125 -9.296875 C 5.3125 -8.296875 5.425781 -7.375 5.65625 -6.53125 C 5.882812 -5.695312 6.242188 -4.976562 6.734375 -4.375 C 7.222656 -3.78125 7.847656 -3.320312 8.609375 -3 C 9.378906 -2.675781 10.316406 -2.515625 11.421875 -2.515625 C 12.304688 -2.515625 13.109375 -2.597656 13.828125 -2.765625 C 14.546875 -2.929688 15.109375 -3.109375 15.515625 -3.296875 L 15.984375 -0.5 C 15.785156 -0.382812 15.503906 -0.269531 15.140625 -0.15625 C 14.785156 -0.0507812 14.378906 0.0390625 13.921875 0.125 C 13.472656 0.207031 12.988281 0.28125 12.46875 0.34375 C 11.957031 0.40625 11.460938 0.4375 10.984375 0.4375 Z M 10.984375 0.4375"/></g><g id="k"><path d="M 7.21875 -2.40625 C 8.582031 -2.40625 9.59375 -2.582031 10.25 -2.9375 C 10.90625 -3.300781 11.234375 -3.878906 11.234375 -4.671875 C 11.234375 -5.484375 10.910156 -6.128906 10.265625 -6.609375 C 9.617188 -7.085938 8.554688 -7.625 7.078125 -8.21875 C 6.359375 -8.507812 5.664062 -8.800781 5 -9.09375 C 4.34375 -9.394531 3.773438 -9.75 3.296875 -10.15625 C 2.816406 -10.5625 2.429688 -11.050781 2.140625 -11.625 C 1.859375 -12.207031 1.71875 -12.914062 1.71875 -13.75 C 1.71875 -15.40625 2.328125 -16.71875 3.546875 -17.6875 C 4.773438 -18.65625 6.441406 -19.140625 8.546875 -19.140625 C 9.066406 -19.140625 9.59375 -19.109375 10.125 -19.046875 C 10.65625 -18.984375 11.144531 -18.910156 11.59375 -18.828125 C 12.050781 -18.742188 12.453125 -18.65625 12.796875 -18.5625 C 13.148438 -18.46875 13.421875 -18.382812 13.609375 -18.3125 L 13 -15.4375 C 12.632812 -15.632812 12.066406 -15.832031 11.296875 -16.03125 C 10.535156 -16.238281 9.617188 -16.34375 8.546875 -16.34375 C 7.609375 -16.34375 6.789062 -16.15625 6.09375 -15.78125 C 5.40625 -15.40625 5.0625 -14.828125 5.0625 -14.046875 C 5.0625 -13.628906 5.140625 -13.265625 5.296875 -12.953125 C 5.453125 -12.648438 5.691406 -12.367188 6.015625 -12.109375 C 6.335938 -11.859375 6.738281 -11.625 7.21875 -11.40625 C 7.695312 -11.195312 8.269531 -10.972656 8.9375 -10.734375 C 9.820312 -10.398438 10.613281 -10.070312 11.3125 -9.75 C 12.007812 -9.425781 12.601562 -9.046875 13.09375 -8.609375 C 13.582031 -8.179688 13.957031 -7.660156 14.21875 -7.046875 C 14.476562 -6.441406 14.609375 -5.695312 14.609375 -4.8125 C 14.609375 -3.082031 13.96875 -1.773438 12.6875 -0.890625 C 11.40625 -0.00390625 9.582031 0.4375 7.21875 0.4375 C 5.5625 0.4375 4.265625 0.296875 3.328125 0.015625 C 2.398438 -0.253906 1.769531 -0.460938 1.4375 -0.609375 L 2.046875 -3.484375 C 2.429688 -3.335938 3.039062 -3.117188 3.875 -2.828125 C 4.71875 -2.546875 5.832031 -2.40625 7.21875 -2.40625 Z M 7.21875 -2.40625"/></g><clipPath id="a"><path d="M 21 129 L 120.6875 129 L 120.6875 132.71875 L 21 132.71875 Z M 21 129"/></clipPath><clipPath id="b"><path d="M 88 15.03125 L 110 15.03125 L 110 38 L 88 38 Z M 88 15.03125"/></clipPath></defs><path fill="#A6A6A6" d="M 32.578125 89.683594 L 52.128906 89.683594 L 52.128906 130.964844 L 32.578125 130.964844 Z M 32.578125 89.683594"/><path fill="#A6A6A6" d="M 61.902344 70.792969 L 81.449219 70.792969 L 81.449219 130.964844 L 61.902344 130.964844 Z M 61.902344 70.792969"/><path fill="#A6A6A6" d="M 91.226562 47.238281 L 110.773438 47.238281 L 110.773438 130.964844 L 91.226562 130.964844 Z M 91.226562 47.238281"/><g clip-path="url(#a)"><path fill="#529DFF" d="M 118.804688 132.707031 L 23.328125 132.707031 C 22.367188 132.707031 21.589844 131.925781 21.589844 130.964844 C 21.589844 130.003906 22.367188 129.226562 23.328125 129.226562 L 118.804688 129.226562 C 119.761719 129.226562 120.539062 130.003906 120.539062 130.964844 C 120.539062 131.925781 119.761719 132.707031 118.804688 132.707031 Z M 118.804688 132.707031"/></g><path fill="#529DFF" d="M 17.046875 92.5625 C 16.648438 92.5625 16.253906 92.429688 15.925781 92.152344 C 15.191406 91.53125 15.101562 90.433594 15.71875 89.699219 L 29.855469 72.933594 C 30.414062 72.273438 31.371094 72.125 32.101562 72.582031 L 39.667969 77.320312 L 60.570312 52.300781 C 61.113281 51.648438 62.046875 51.484375 62.777344 51.914062 L 71.289062 56.890625 L 97.707031 25.417969 C 98.324219 24.679688 99.417969 24.585938 100.152344 25.207031 C 100.886719 25.824219 100.980469 26.921875 100.363281 27.660156 L 73.003906 60.253906 C 72.460938 60.902344 71.53125 61.0625 70.800781 60.636719 L 62.292969 55.660156 L 41.363281 80.71875 C 40.804688 81.382812 39.84375 81.535156 39.109375 81.078125 L 31.535156 76.332031 L 18.375 91.945312 C 18.03125 92.355469 17.539062 92.5625 17.046875 92.5625 Z M 17.046875 92.5625"/><g clip-path="url(#b)"><path fill="#529DFF" d="M 109.089844 15.03125 L 101.9375 37.292969 L 98.480469 27.667969 L 88.429688 25.90625 Z M 109.089844 15.03125"/></g><g fill="#529DFF"><use x="129.016" y="83.447" xmlns:xlink="http://www.w3.org/1999/xlink" xlink:href="#c" xlink:type="simple" xlink:actuate="onLoad" xlink:show="embed"/></g><g fill="#529DFF"><use x="162.267" y="83.447" xmlns:xlink="http://www.w3.org/1999/xlink" xlink:href="#d" xlink:type="simple" xlink:actuate="onLoad" xlink:show="embed"/></g><g fill="#529DFF"><use x="192.76" y="83.447" xmlns:xlink="http://www.w3.org/1999/xlink" xlink:href="#e" xlink:type="simple" xlink:actuate="onLoad" xlink:show="embed"/></g><g fill="#A6A6A6"><use x="127.067" y="117.702" xmlns:xlink="http://www.w3.org/1999/xlink" xlink:href="#f" xlink:type="simple" xlink:actuate="onLoad" xlink:show="embed"/></g><g fill="#A6A6A6"><use x="136.871" y="117.702" xmlns:xlink="http://www.w3.org/1999/xlink" xlink:href="#g" xlink:type="simple" xlink:actuate="onLoad" xlink:show="embed"/></g><g fill="#A6A6A6"><use x="154.718" y="117.702" xmlns:xlink="http://www.w3.org/1999/xlink" xlink:href="#h" xlink:type="simple" xlink:actuate="onLoad" xlink:show="embed"/></g><g fill="#A6A6A6"><use x="169.154" y="117.702" xmlns:xlink="http://www.w3.org/1999/xlink" xlink:href="#i" xlink:type="simple" xlink:actuate="onLoad" xlink:show="embed"/></g><g fill="#A6A6A6"><use x="178.239" y="117.702" xmlns:xlink="http://www.w3.org/1999/xlink" xlink:href="#j" xlink:type="simple" xlink:actuate="onLoad" xlink:show="embed"/></g><g fill="#A6A6A6"><use x="194.938" y="117.702" xmlns:xlink="http://www.w3.org/1999/xlink" xlink:href="#k" xlink:type="simple" xlink:actuate="onLoad" xlink:show="embed"/></g></svg>